<svg id="Capa_1" data-name="Capa 1" xmlns="http://www.w3.org/2000/svg" viewBox="0 0 250 250"><defs><style>.cls-1{fill:#fff;}.cls-2,.cls-3{fill:#0d377b;}.cls-3{stroke:#0d377b;stroke-miterlimit:10;stroke-width:4px;}</style></defs><rect class="cls-1" width="250" height="250" rx="19.96"/><rect class="cls-2" x="14.96" y="206.43" width="221.37" height="13"/><path class="cls-3" d="M101.23,143.33H95.55c-24.93-24.92,26.43-73.61,0-100h5.68C127.25,69.31,76.55,118.65,101.23,143.33Z"/><path class="cls-3" d="M125.32,143.33h-5.68c-24.93-24.92,26.43-73.61,0-100h5.68C151.34,69.31,100.64,118.65,125.32,143.33Z"/><path class="cls-3" d="M147.91,143.33h-5.69c-24.93-24.92,26.43-73.61,0-100h5.69C173.92,69.31,123.22,118.65,147.91,143.33Z"/><polygon class="cls-2" points="154.55 188.48 97.24 188.48 90.56 198.5 160.67 198.5 154.55 188.48"/><polygon class="cls-2" points="215.69 188.48 160.91 188.48 167.02 198.5 234.59 198.5 215.69 188.48"/><polygon class="cls-2" points="151.24 183.06 145.12 173.04 107.53 173.04 100.85 183.06 151.24 183.06"/><polygon class="cls-2" points="94.34 183.06 101.01 173.04 66.16 173.04 46.69 183.06 94.34 183.06"/><polygon class="cls-2" points="151.48 173.04 157.59 183.06 205.45 183.06 186.54 173.04 151.48 173.04"/><polygon class="cls-2" points="90.72 188.48 36.16 188.48 16.69 198.5 84.05 198.5 90.72 188.48"/></svg>