<svg id="Capa_1" data-name="Capa 1" xmlns="http://www.w3.org/2000/svg" viewBox="0 0 250 250"><defs><style>.cls-1{fill:#fff;}.cls-2{fill:#0d377b;}</style></defs><rect class="cls-1" width="250" height="250" rx="19.96"/><path class="cls-2" d="M193.54,134.66l-20.8,11.54-7.47-4.31,7.58-3.74L168,128.28l-14.16,7-9.23-5.34a20.31,20.31,0,0,0,0-9.88l9.23-5.34,14.16,7,4.88-9.87-7.58-3.74,7.47-4.31,20.8,11.54,5.35-9.62-15-8.35,12.24-7.06-5.5-9.54-12.24,7.07.28-17.19-11-.18-.4,23.79-7.46,4.31.54-8.44-11-.71-1,15.77-9.25,5.34a20.25,20.25,0,0,0-8.55-5V94.91l13.14-8.76L137.54,77l-7,4.69V73.05l20.4-12.24-5.67-9.44-14.73,8.84V46.08h-11V60.21l-14.73-8.84-5.67,9.44,20.4,12.24v8.62l-7-4.69-6.11,9.17,13.14,8.76v10.67a20.14,20.14,0,0,0-8.55,5l-9.25-5.34-1-15.77-11,.71.54,8.44-7.46-4.31-.4-23.79-11,.18.28,17.19L59.4,80.77l-5.5,9.54,12.24,7.06-15,8.35,5.35,9.62,20.8-11.54,7.46,4.31-7.57,3.74L82,121.72l14.16-7,9.23,5.34a20.31,20.31,0,0,0,0,9.88l-9.23,5.34-14.16-7-4.88,9.87,7.57,3.74-7.46,4.31-20.8-11.54-5.35,9.62,15,8.35L53.9,159.69l5.5,9.54,12.24-7.07-.28,17.19,11,.18.4-23.79,7.46-4.31-.54,8.44,11,.71,1-15.77,9.25-5.34a20.25,20.25,0,0,0,8.55,4.95v10.67l-13.14,8.76,6.11,9.17,7-4.69V177l-20.4,12.24,5.67,9.44,14.73-8.84v14.13h11V189.79l14.73,8.84,5.67-9.44L130.51,177v-8.62l7,4.69,6.11-9.17-13.14-8.76V144.42a20.14,20.14,0,0,0,8.55-4.95l9.25,5.34,1,15.77,11-.71-.54-8.44,7.46,4.31.4,23.79,11-.18-.28-17.19,12.24,7.07,5.5-9.54-12.24-7.06,15-8.34ZM125,134.18a9.18,9.18,0,1,1,9.18-9.18A9.19,9.19,0,0,1,125,134.18Z"/></svg>