<svg id="Capa_1" data-name="Capa 1" xmlns="http://www.w3.org/2000/svg" viewBox="0 0 250 250"><defs><style>.cls-1{fill:#fff;}.cls-2{fill:#0d377b;}</style></defs><rect class="cls-1" width="250" height="250" rx="19.96"/><path class="cls-2" d="M201.56,201.56H48.44V172H57V75.06H48.44V48.44H201.49V75.07H193v96.86h8.58Zm-38.92-29.75V96.73H87.37v75h16c-5.57-10-3-20-.27-26.44l8,2.81c1.44-18.51,12.18-25.59,22-30.29.07.41.18.79.21,1.18.24,3.13.63,6.26.65,9.39a20.94,20.94,0,0,0,5.22,13.8c1.9,2.24,3.81,4.48,5.58,6.82,4.36,5.78,6.35,12.13,4.41,19.35-.3,1.14-.7,2.25-1.07,3.42ZM57.46,192.48h135V181h-135ZM66.15,87.56H183.8V75.13H158.14v.06H142v-.05h-9v0h-16.2v0h-8.9v0H66.15Zm126.37-30h-135V66h135ZM66.18,96.72v75.06h12V96.72Zm105.64,0v75.05h12v-75ZM109.19,157c-.5,5.85,1.26,10.55,5.57,14.2a2.92,2.92,0,0,0,1.72.65q10,.06,20,0a1.94,1.94,0,0,0,1.43-.48c2.78-4.08,4.27-8.52,1.82-13.17-1.56-3-3.86-5.52-5.82-8.27s-4.19-5.58-5.93-8.57c-1.24-2.13-1.86-4.62-2.8-7-.39.54-.82,1.07-1.18,1.65a25.61,25.61,0,0,0-3.35,18.65c.4,2.27.9,4.51,1.39,7Z"/><path class="cls-2" d="M125.81,109.31H117v-8.78h8.79Z"/><path class="cls-2" d="M143,118.18h8.77V127H143Z"/><path class="cls-2" d="M96.09,120.59h8.8v8.78h-8.8Z"/></svg>