<svg id="Capa_1" data-name="Capa 1" xmlns="http://www.w3.org/2000/svg" viewBox="0 0 250 250"><defs><style>.cls-1{fill:#fff;}.cls-2{fill:#0d377b;}</style></defs><rect class="cls-1" width="250" height="250" rx="19.96"/><path class="cls-2" d="M201.56,116A67.59,67.59,0,0,0,89.45,65.17L83,58.72l-6.34,6.34,6.45,6.45a67.62,67.62,0,0,0-5.51,81.86L52.37,178.59a13.46,13.46,0,0,0,19,19L96.63,172.4a67.62,67.62,0,0,0,81.86-5.51l6.45,6.45,6.34-6.34-6.45-6.45A67.1,67.1,0,0,0,201.56,116Zm-29.38,31.86,19-19a58,58,0,0,1-12.71,25.3Zm-39.41,26.72a59.2,59.2,0,0,1-11.47-1.36l31.77-31.77,6.42,6.41Zm26.65-39.48,31.8-31.79a59.05,59.05,0,0,1,1.36,11.47l-26.75,26.74Zm-6.35-6.34-6.41-6.41,37.18-37.19a57.5,57.5,0,0,1,4.35,8.48Zm25.4-50.92L140.31,116,134,109.69l38.16-38.16c1.13,1,2.22,2,3.29,3s2.08,2.16,3.05,3.29ZM92.52,157.48c-1.07-1.06-2.08-2.16-3.06-3.29L127.62,116l6.35,6.35L95.81,160.53q-1.69-1.44-3.29-3.05ZM75.36,117.25,102.1,90.51l6.42,6.42-31.8,31.8a59.25,59.25,0,0,1-1.36-11.48Zm33.09-33.08,26.72-26.72a59.29,59.29,0,0,1,11.47,1.36L114.87,90.58ZM156.3,61.83a58.17,58.17,0,0,1,8.5,4.34l-37.18,37.17-6.41-6.41Zm-35.24-3-19,18.95-6.29-6.29a58.21,58.21,0,0,1,25.25-12.66Zm-25.3,25.3-19,19a58,58,0,0,1,12.71-25.3Zm-16,54.22,35.12-35.12,6.41,6.42L84.09,146.87a58.42,58.42,0,0,1-4.34-8.48ZM65.06,191.28a4.48,4.48,0,1,1-6.34-6.34l24.39-24.39q1.47,1.68,3.06,3.28t3.28,3.06Zm75.25-62.56,6.42,6.41-35.09,35.1a57.61,57.61,0,0,1-8.5-4.33Zm6.57,44.47,19-18.95,6.3,6.29a58.1,58.1,0,0,1-25.25,12.66Zm0,0"/></svg>