<svg id="Capa_1" data-name="Capa 1" xmlns="http://www.w3.org/2000/svg" viewBox="0 0 250 250"><defs><style>.cls-1{fill:#fff;}.cls-2{fill:#0d377b;stroke:#0d377b;stroke-miterlimit:10;stroke-width:3px;}</style></defs><rect class="cls-1" width="250" height="250" rx="19.96"/><path class="cls-2" d="M148.68,133.89H97.31v2.81c0,3.9,0,7.81,0,11.72a3.75,3.75,0,0,1-2.92,4,3.63,3.63,0,0,1-4.27-3,8.79,8.79,0,0,1,0-1.26q0-40.56,0-81.12a17.63,17.63,0,0,1,35.22-1.51c.09,2.06.08,4.12.06,6.18,0,2.42-1.46,4-3.56,4s-3.54-1.55-3.61-4c-.06-2.17.06-4.35-.18-6.49a10.37,10.37,0,0,0-20.65,1c-.09,10.88,0,21.76,0,32.64a6.52,6.52,0,0,0,.09.71h51.28V97.64c0-10.24,0-20.49,0-30.73a17.55,17.55,0,0,1,16-17.9c9.51-1.12,18.76,6.7,19.18,16.26.1,2.21.08,4.43.05,6.65a3.58,3.58,0,1,1-7.15,0c-.09-2.11,0-4.23-.14-6.33a10.37,10.37,0,0,0-20.21-2.26,15.92,15.92,0,0,0-.51,4.53q0,39.67,0,79.37a12.5,12.5,0,0,1-.12,2.21,3.56,3.56,0,0,1-3.7,3A3.52,3.52,0,0,1,148.7,149c0-4.33,0-8.66,0-13Zm-51.3-7.45h51.21V107H97.38Z"/><path class="cls-2" d="M165.65,181a18,18,0,0,1-11.92-4.25c-2.22-1.8-4.43-3.56-7.51-3.73a11,11,0,0,0-7.95,2.44c-2.53,2.08-5.14,4.1-8.41,4.91a17.77,17.77,0,0,1-15.61-2.93c-1-.73-1.92-1.49-2.9-2.22a10.5,10.5,0,0,0-13.19,0c-2.64,2-5.2,4.19-8.51,5.05a17.76,17.76,0,0,1-15.26-2.49c-1-.72-2-1.51-3-2.3a10.13,10.13,0,0,0-6.5-2.52,6,6,0,0,1-1.26-.17,3.56,3.56,0,0,1,.56-7,16.25,16.25,0,0,1,10.41,3.13c1.08.76,2.11,1.59,3.16,2.39,4.4,3.34,9.32,3.36,13.69,0,2.85-2.2,5.68-4.43,9.34-5.13A17.88,17.88,0,0,1,116,169.64c.86.69,1.74,1.37,2.63,2a10.57,10.57,0,0,0,12.69,0c1.41-1,2.72-2.2,4.2-3.11,6.4-3.9,12.87-3.9,19.29,0a46.83,46.83,0,0,1,3.82,2.81c4.33,3.27,9.29,3.3,13.57,0,3.14-2.45,6.29-4.84,10.41-5.36a19.28,19.28,0,0,1,3.31-.16,3.55,3.55,0,0,1,.51,7c-1,.21-2.2,0-3.12.4a27,27,0,0,0-5.6,3.1C174,179.15,170.11,181.08,165.65,181Z"/><path class="cls-2" d="M165,201a16.49,16.49,0,0,1-10.23-3.43c-1.11-.82-2.18-1.68-3.28-2.49a10.57,10.57,0,0,0-12.69,0c-1.19.88-2.33,1.82-3.54,2.68a17.72,17.72,0,0,1-20.87-.17c-1-.75-2-1.54-3-2.31a10.58,10.58,0,0,0-13.2,0c-1.27.94-2.49,2-3.81,2.84a17.72,17.72,0,0,1-20-.2c-1.21-.84-2.37-1.77-3.53-2.68a10.15,10.15,0,0,0-6.15-2.2c-2.49-.06-4-1.58-4-3.77s1.73-3.53,4.24-3.46a17,17,0,0,1,9.87,3.41c1.1.82,2.17,1.68,3.27,2.5a10.53,10.53,0,0,0,12.69.06c1.2-.86,2.33-1.82,3.54-2.67a17.77,17.77,0,0,1,20.87.09c1,.71,1.92,1.48,2.89,2.21,4.45,3.35,9.31,3.35,13.7-.09,3.23-2.53,6.5-4.85,10.75-5.35a17.78,17.78,0,0,1,13.17,3.3c1,.72,1.92,1.48,2.89,2.21a10.48,10.48,0,0,0,13.32.05c2.86-2.17,5.63-4.5,9.28-5.22a22.39,22.39,0,0,1,4.24-.48,3.59,3.59,0,0,1,3.68,3.41,3.49,3.49,0,0,1-3.33,3.73c-3.49,0-6.11,1.63-8.68,3.69C173.09,200,170,201,165,201Z"/></svg>