<svg id="Capa_1" data-name="Capa 1" xmlns="http://www.w3.org/2000/svg" viewBox="0 0 250 250"><defs><style>.cls-1{fill:#fff;}.cls-2{fill:#0d377b;stroke:#0d377b;stroke-miterlimit:10;stroke-width:4px;}</style></defs><rect class="cls-1" width="250" height="250" rx="19.96"/><path class="cls-2" d="M79.33,138.53H65.53q-.94,5.66-1.89,11.27c-1.5,9-3,18-4.5,27.06a6.2,6.2,0,0,1-.73,2.21,2.83,2.83,0,0,1-3.57,1.08,3,3,0,0,1-1.87-3.4c.78-4.82,1.6-9.63,2.41-14.44q1.92-11.46,3.83-22.91a7.23,7.23,0,0,0,0-1c-1.68,0-3.3,0-4.92,0a3.14,3.14,0,0,1-3.45-3.13Q47.51,108.65,44.17,82a3.15,3.15,0,0,1,2.67-3.81c1.7-.21,3.1,1,3.36,3q2.19,17.3,4.35,34.58c.68,5.45,1.37,10.91,2.07,16.46H80.5q1.17-6.51,2.35-13.05c.25-1.38.47-2.76.72-4.14.39-2.07,1.35-2.91,3.42-3,.67,0,1.35,0,2,0H161.8c3.85,0,4.35.46,5,4.3.85,4.92,1.73,9.84,2.67,14.74.09.48.71,1.22,1.09,1.23,7.47.06,14.94,0,22.41,0,.1,0,.2-.08.43-.18.66-5.27,1.34-10.61,2-15.95q2.19-17.55,4.39-35.08a3.08,3.08,0,0,1,3.45-2.9c1.79.28,2.82,1.77,2.57,3.89q-1.16,9.53-2.37,19.05l-4.29,33.9c-.31,2.52-1.29,3.37-3.89,3.39h-4.62c1.1,6.62,2.16,13,3.23,19.45q1.56,9.3,3.12,18.59c.33,2-.62,3.52-2.34,3.84s-3.29-.68-3.65-2.79q-2.86-17-5.7-34c-.27-1.6-.53-3.21-.82-4.94H170.77c.61,3.56,1.2,7.08,1.82,10.6q3.61,20.37,7.23,40.76a3.33,3.33,0,0,1-1.92,3.88c-11.78,6.21-23.78,6.74-36,1.29a3.91,3.91,0,0,0-3.45,0A44.35,44.35,0,0,1,103,195a2.73,2.73,0,0,0-2.63.08c-9.7,5.05-19.18,4.56-28.41-1.29a3.59,3.59,0,0,1-1.71-4.15q4.47-24.58,8.81-49.19C79.18,139.84,79.24,139.22,79.33,138.53Zm9.93-20.29c-.12.6-.25,1.13-.35,1.68q-1.6,8.94-3.2,17.88-4.48,25.19-9,50.36a1.49,1.49,0,0,0,1,1.94,21.1,21.1,0,0,0,19.59-.19,1.87,1.87,0,0,0,1.13-2c0-4.21,0-8.43,0-12.64,0-4.43,0-8.87,0-13.31a3.06,3.06,0,0,1,3.11-3.25,3.1,3.1,0,0,1,3,3.25c0,.45,0,.9,0,1.34,0,8,0,16.07,0,24.1a2,2,0,0,0,1.46,2.21,39.27,39.27,0,0,0,29.87,0,2.13,2.13,0,0,0,1.56-2.35c-.05-12,0-23.92,0-35.88a10.52,10.52,0,0,1,.14-2.18,3,3,0,0,1,5.81-.07,9.87,9.87,0,0,1,.15,2.18c0,12,0,24,0,36.05a2.22,2.22,0,0,0,1.53,2.39,33.39,33.39,0,0,0,16.42,2.83,30.8,30.8,0,0,0,12.18-3.48q-6.27-35.59-12.51-70.93Z"/><path class="cls-2" d="M120.17,77.93c.32-4.59.94-5.74,3-5.82s2.81,1,3.28,5.7c1.7.49,3.46.87,5.12,1.49a23.26,23.26,0,0,1,15,21c0,2.68-1,3.81-3.72,3.82q-19.62,0-39.24,0c-2.59,0-3.68-1.13-3.66-3.71a23.42,23.42,0,0,1,18.65-22.21ZM106.52,98h33.57c-.28-7.24-8.32-14-16.6-14.13C113.28,83.75,107,92.12,106.52,98Z"/><path class="cls-2" d="M116.56,56.31c0-2,0-3.92,0-5.88a3,3,0,1,1,6.06,0c0,3.92,0,7.85,0,11.77a3,3,0,1,1-6.06.05C116.52,60.24,116.56,58.27,116.56,56.31Z"/><path class="cls-2" d="M136.48,64.31c0,1.29,0,2.58,0,3.86a3,3,0,0,1-2.82,3,2.93,2.93,0,0,1-3.19-2.78c-.12-2.74-.11-5.49,0-8.23a3,3,0,0,1,6,.14C136.52,61.62,136.48,63,136.48,64.31Z"/><path class="cls-2" d="M109.79,67.29c0,1,0,2,0,3a3.06,3.06,0,0,1-3.14,3.21,3,3,0,0,1-2.92-3.22q-.06-3,0-6A3,3,0,0,1,106.66,61a3.07,3.07,0,0,1,3.12,3.23C109.83,65.28,109.79,66.28,109.79,67.29Z"/></svg>