<svg id="Capa_1" data-name="Capa 1" xmlns="http://www.w3.org/2000/svg" viewBox="0 0 250 250"><defs><style>.cls-1{fill:#fff;}.cls-2{fill:#0d377b;}</style></defs><rect class="cls-1" width="250" height="250" rx="19.96"/><path class="cls-2" d="M138.82,173.15v10H129v-9.83H58.08v9.82H48.21V173.3H40.85v-2c0-18.39.12-36.78-.07-55.18a16.3,16.3,0,0,1,9.8-14.34,2.5,2.5,0,0,0,1.85-2.86c-.06-9.61,0-19.22,0-28.83V68.17h82.25v2q0,14.67,0,29.32c0,.93.06,1.57,1.14,2,7,2.91,10.67,8.33,10.72,15.84.13,18.34,0,36.68,0,55,0,.21,0,.42-.09.83Zm-25.67-51.52c0-1.35,0-2.6,0-3.85.12-7.66,3.48-13.22,10.62-16.28.91-.39,1-.94,1-1.78,0-6.8,0-13.61,0-20.42a12.16,12.16,0,0,0-.11-1.24H62.28c0,7.47,0,14.82,0,22.17a1.64,1.64,0,0,0,.84,1.15c7.52,3.31,10.91,9.14,10.71,17.23,0,1,0,2,0,3Zm23.44,33.86H50.51v7.76h86.08ZM74,145.42h39.1V131.69H74Zm62.65,0c0-.48.07-.8.07-1.12q0-13.43,0-26.83a9.75,9.75,0,0,0-.28-2.28,6.7,6.7,0,0,0-6.2-5c-4.21-.15-7.11,2.81-7.13,7.44,0,8.83,0,17.67,0,26.5a12.43,12.43,0,0,0,.13,1.3Zm-72.68,0c0-9.87,0-19.58,0-29.28a5.75,5.75,0,0,0-2.57-4.58A6.79,6.79,0,0,0,50.42,117c0,9.27,0,18.54,0,27.81a2.68,2.68,0,0,0,.15.64Z"/><path class="cls-2" d="M209.22,108.27H188.06V124h16.09V175H200v8.18h-9.88v-8.06H176v8.07h-9.83v-8.09h-4.25V124.06H178V108.29h-21.4c4.54-14,9-27.75,13.49-41.51h27.28C201.27,80.54,205.22,94.31,209.22,108.27Zm-39-10h25.86c-2-7-4-13.92-6-20.79-.12-.39-.95-.79-1.46-.8-3.34-.07-6.69,0-10-.06a1.48,1.48,0,0,0-1.73,1.24c-1.16,3.77-2.41,7.51-3.64,11.26C172.22,92.1,171.24,95.1,170.21,98.24Zm1.53,56.34v10.5H194.3v-10.5Zm22.56-10.15V134H171.74v10.44Z"/><path class="cls-2" d="M77.16,92.92h9.76v9.8H77.16Z"/><path class="cls-2" d="M100.11,102.67V93h9.75v9.7Z"/></svg>