<svg id="Capa_1" data-name="Capa 1" xmlns="http://www.w3.org/2000/svg" viewBox="0 0 250 250"><defs><style>.cls-1{fill:#fff;}.cls-2{fill:#0d377b;}</style></defs><rect class="cls-1" width="250" height="250" rx="19.96"/><path class="cls-2" d="M42.7,42.7H207.3V207.3H42.7ZM53.08,94.22V196.91H196.89V94.22Zm0-10.48H196.89V53.07H53.06Z"/><path class="cls-2" d="M63.39,104.5H186.64v82.1H63.39Zm113.05,10.32H73.68v61.53H94.14c0-3.54,0-7,0-10.48,0-.36-.52-.87-.92-1.06-6.32-3-9.31-8.1-9.32-15q0-11.56,0-23.13c0-.52.05-1,.07-1.54h30.79c0,8.3,0,16.49,0,24.68,0,6.92-3,12-9.33,15-.4.19-.9.69-.91,1.06-.07,3.47,0,6.93,0,10.48h24c-.21-.6-.37-1.1-.58-1.58a34.49,34.49,0,0,1-2.73-11.34c-1.66-22.71,18.6-41.44,41-37.86,3.13.5,6.18,1.18,9.25,0a1.77,1.77,0,0,0,1-1.18C176.48,121.25,176.44,118.09,176.44,114.82Zm-.08,61.62V136a22.18,22.18,0,0,0-9.44,3.92c-11.52,7.88-14.54,24.16-6.54,35.38a2.53,2.53,0,0,0,1.54,1.11C166.68,176.47,171.44,176.44,176.36,176.44Zm-21-40.64c-1.78.67-3.62,1.23-5.35,2-14.21,6.57-19.17,25-10.12,37.55a2.34,2.34,0,0,0,1.42,1c2.51.1,5,.05,7.66.05C142.84,161.56,145.05,148.13,155.34,135.8Zm-61.2-.43c0,5,0,9.89,0,14.8,0,3.39,2.16,5.72,5.2,5.68s5.07-2.33,5.08-5.64c0-4.55,0-9.1,0-13.64a11.63,11.63,0,0,0-.11-1.2Z"/><path class="cls-2" d="M135.36,73.45V63.36h51.23V73.45Z"/><path class="cls-2" d="M73.49,63.39V73.48H63.4V63.39Z"/><path class="cls-2" d="M83.92,73.45V63.36H94V73.45Z"/><path class="cls-2" d="M104.5,73.45V63.36h10.08V73.45Z"/></svg>