<svg id="Capa_1" data-name="Capa 1" xmlns="http://www.w3.org/2000/svg" viewBox="0 0 250 250"><defs><style>.cls-1{fill:#fff;}.cls-2{fill:#0d377b;stroke:#0d377b;stroke-miterlimit:10;stroke-width:2.12px;}</style></defs><rect class="cls-1" width="250" height="250" rx="19.96"/><path class="cls-2" d="M198.63,58.11h-59a3.27,3.27,0,0,0,0,6.54h59a3.28,3.28,0,0,1,3.27,3.27v85.87a3.28,3.28,0,0,1-3.27,3.27h-48.3V128.65a10.49,10.49,0,0,0-10.47-10.48H110a10.49,10.49,0,0,0-10.47,10.48v28.41H51.24A3.28,3.28,0,0,1,48,153.79V67.92a3.28,3.28,0,0,1,3.27-3.27h59a3.27,3.27,0,0,0,0-6.54h-59a9.81,9.81,0,0,0-9.8,9.81v85.87a9.81,9.81,0,0,0,9.8,9.8H60l-6.58,12.26a6.54,6.54,0,0,0,5.76,9.63H67A6.52,6.52,0,0,0,72.75,182l9.91-18.45H99.54V194.8A10.49,10.49,0,0,0,110,205.27h29.85a10.49,10.49,0,0,0,10.47-10.47V163.59h16.88L177.12,182a6.52,6.52,0,0,0,5.75,3.44h7.78a6.54,6.54,0,0,0,5.76-9.63l-6.59-12.26h8.81a9.82,9.82,0,0,0,9.81-9.8V67.92a9.83,9.83,0,0,0-9.81-9.81ZM67,179H59.22l8.24-15.36h7.78Zm39.08-38.2h37.71v41.94H106.08Zm3.93-16h29.85a3.94,3.94,0,0,1,3.93,3.94v5.57H106.08v-5.57a3.94,3.94,0,0,1,3.93-3.94Zm29.85,74H110a3.94,3.94,0,0,1-3.93-3.94v-5.57h37.71v5.57a3.94,3.94,0,0,1-3.93,3.94ZM190.65,179h-7.78l-8.24-15.36h7.78Zm0,0"/><path class="cls-2" d="M152.79,89.23a3.26,3.26,0,0,0,0-4.62,40.17,40.17,0,0,0-56.77,0,3.27,3.27,0,1,0,4.62,4.62,33.65,33.65,0,0,1,47.53,0,3.28,3.28,0,0,0,4.62,0Zm0,0"/><path class="cls-2" d="M142.94,99.08a3.26,3.26,0,0,0,0-4.62,26.24,26.24,0,0,0-37.07,0,3.27,3.27,0,0,0,4.63,4.62,19.69,19.69,0,0,1,27.82,0,3.26,3.26,0,0,0,4.62,0Zm0,0"/><path class="cls-2" d="M112.84,106.2a3.27,3.27,0,1,0,4.62,4.62,9.84,9.84,0,0,1,13.9,0A3.27,3.27,0,1,0,136,106.2a16.38,16.38,0,0,0-23.14,0Zm0,0"/><path class="cls-2" d="M128.2,61.38a3.27,3.27,0,1,1-3.27-3.27,3.26,3.26,0,0,1,3.27,3.27Zm0,0"/></svg>