<svg id="Capa_1" data-name="Capa 1" xmlns="http://www.w3.org/2000/svg" viewBox="0 0 250 250"><defs><style>.cls-1{fill:#fff;}.cls-2{fill:#0d377b;}</style></defs><rect class="cls-1" width="250" height="250" rx="19.96"/><path class="cls-2" d="M51.3,108c.66-3.1,2.69-5.28,4.82-7.46,7.68-7.87,16.05-14.83,25.82-20a94.13,94.13,0,0,1,90.61,1.32,97,97,0,0,1,23.28,18.62,9.77,9.77,0,0,1,1.23,12.31,9.59,9.59,0,0,1-11.48,3.81,12.39,12.39,0,0,1-4.34-2.93,84,84,0,0,0-17.86-14.41,74.15,74.15,0,0,0-90,11.94c-1.56,1.56-3.18,3.07-4.68,4.68a9.89,9.89,0,0,1-17.17-4.47,2.24,2.24,0,0,0-.23-.53Z"/><path class="cls-2" d="M126.57,105.3a55.44,55.44,0,0,1,28.26,7.57,62.49,62.49,0,0,1,16.84,14.43c3.21,3.88,2.63,10.11-1,13.8s-9.95,4.27-13.92,1c-2.21-1.82-4.21-3.91-6.33-5.86a34.73,34.73,0,0,0-48.52,1.11c-1.84,1.83-3.63,3.71-5.51,5.48-6.28,5.92-15.95,3.31-18.14-4.93a10.1,10.1,0,0,1,2.59-10c5.61-5.92,11.37-11.68,18.65-15.64A56.56,56.56,0,0,1,126.57,105.3Z"/><path class="cls-2" d="M142.56,163.26A17.22,17.22,0,1,1,125.39,146,17.26,17.26,0,0,1,142.56,163.26Z"/></svg>