<svg id="Capa_1" data-name="Capa 1" xmlns="http://www.w3.org/2000/svg" viewBox="0 0 54.05 18.3"><defs><style>.cls-1{opacity:0.25;}.cls-2{fill:#0d377b;}</style></defs><g class="cls-1"><path class="cls-2" d="M53.84,5.92a1.54,1.54,0,0,0-.54-.07,23.9,23.9,0,0,1-3.3-1c-2.75-.94-2.86-1-2.76-1.2s-.06-.43-1.48-.8c-1.06-.28-4.68-1.06-5.63-1.22-.25,0-.31-.08-.21-.14a.51.51,0,0,0,.21-.28c.1-.3,0-.34-1.9-.54A25.82,25.82,0,0,0,33.34.55c-.81.08-.84.07-.78-.15s0-.26-.1-.33c-.34-.21-2.87.08-5,.58-1.14.26-1.23.27-1.12.08s0-.54-.36-.47a29.7,29.7,0,0,0-3.61,1.07c-1.82.7-1.73.68-1.66.43s0-.5-.26-.46a14.06,14.06,0,0,0-2.56,1,23.31,23.31,0,0,0-3.11,2l-.27.2L14.77,4c.38-.71.46-1,.26-1.09s-2.95,1.83-4.43,3.2a24.07,24.07,0,0,0-4.15,5.15l-.53.92-1.25.42a18,18,0,0,0-4.26,2,1.74,1.74,0,0,0-.34.68L0,15.7l.42.13L.84,16l2.63-.9c2.53-.87,2.66-.9,3.24-.85a14.18,14.18,0,0,1,4.58,1.42A21.8,21.8,0,0,0,17,17.56a6.4,6.4,0,0,1,1.34.21,15.17,15.17,0,0,0,3,.53.62.62,0,0,0,.4-.15c.06-.09.2-.12.38-.08a.63.63,0,0,0,.39,0,6.1,6.1,0,0,1,1.14.06,6.23,6.23,0,0,0,2.25-.07.36.36,0,0,0,.16-.2c0-.1.28-.15.93-.2.95-.06,1.31-.18,1.32-.46s.12-.19,1.09-.28a19.49,19.49,0,0,0,3-.43c.17-.09.13-.24-.16-.5-.11-.09-.17-.19-.14-.21s.71-.13,1.51-.24c1.94-.29,2.89-.52,3-.74a.28.28,0,0,0,0-.28c-.19-.17.51-.28,1.19-.19.15,0,.21,0,.22-.09s.46-.25,1.52-.55c3.33-.92,4.32-1.25,4.49-1.47s.15-.25,0-.45-.16-.24,0-.25,2.64-.55,3.38-.75a1.94,1.94,0,0,1,1.25,0,1.43,1.43,0,0,0,.63.08c.17-.17,0-.3-.43-.39a1.1,1.1,0,0,1-.55-.23,1.75,1.75,0,0,0-.58-.36l-.51-.22.58-.22c.31-.13,1.14-.44,1.83-.7s2-.81,2.86-1.22c1.45-.68,1.61-.78,1.67-1a.48.48,0,0,0-.18-.57ZM50.17,6c-1.3,0-5.78.17-8.44.34a3.28,3.28,0,0,1-.73,0A27.68,27.68,0,0,1,44.63,5l2.18-.73L48,4.67C49.05,5,51.66,5.9,51.7,6S51,6,50.17,6Zm1.38,1.44L48.67,8.54l-2.16.81-1.09-.29c-.61-.16-1.47-.43-1.93-.61-.84-.32-1-.35-1-.16a11.65,11.65,0,0,0,3,1.13,4.34,4.34,0,0,1,1.18.4c.12.14.09.15-.26,0S40.3,8.29,40,8.23c0,0,1.27-.13,3.21-.3.85-.07,2.77-.25,4.29-.41,3.62-.37,4.74-.47,4.76-.43s-.32.16-.72.33Zm-5.3-3.31-1.46.48-2.43.82c-.66.22-1.6.56-2.07.77a9.85,9.85,0,0,1-2.84.67,17.73,17.73,0,0,1-2,.25s1.16-.59,2.56-1.24c3.27-1.52,3.2-1.48,3.12-1.62s-.41,0-2.07.87-2,1-2.15.91-.36.05-1.28.58-1.21.67-1.46.67h-.31L34.22,7c.17-.12.55-.38.85-.57s.52-.38.5-.43-.44.12-1.36.75l-.77.53-1.3.16c-.7.09-1.94.25-2.73.37L28,8.05l.44-.29c.24-.16.95-.59,1.57-1,1.16-.67,1.51-1,.52-.52A15.82,15.82,0,0,0,27.87,8c0,.07-.21.14-.55.2l-.53.08.46-.43a14.43,14.43,0,0,1,3.6-2.23,12.28,12.28,0,0,0,1.6-.84c-.06-.13-1.1.33-2.73,1.22A9.22,9.22,0,0,0,26.78,8c-.2.26-.26.28-1.22.42s-1,.15-.75-.05a39.4,39.4,0,0,1,4-2.56,29.9,29.9,0,0,1,5.62-2.54c1.3-.47,4.58-1.69,4.74-1.77s.11.06.16.17.4.26,1.38.45c1.58.31,3.89.83,5.08,1.14l.91.24-.12.25a.7.7,0,0,1-.36.32Zm-.79,2.56L41.27,7c-1.24.11-2.93.29-3.76.4l-5.07.65c-3.92.49-12.89,1.83-15.36,2.29-1.42.27-6.56,1.46-8,1.86a1.55,1.55,0,0,1-.61.1s.08-.17.22-.32.4-.29,1.19-.49a3.46,3.46,0,0,1,1-.17s.17,0,.33-.08c.5-.25,4.78-1,14.4-2.42,5.75-.86,7.22-1.06,8.11-1.1.44,0,3-.34,5.18-.65,1.23-.18,3.22-.38,4.43-.45s2.61-.15,3.13-.19c1.68-.12,1,0-1,.2Zm.53,4c-.52.12-1.4.3-2,.41a4.7,4.7,0,0,0-1.06.28c-.08.13.06.33.36.47s.34.26,0,.19l-1-.18a24.05,24.05,0,0,1-2.46-.69,9.94,9.94,0,0,0-1.74-.5c-.06.2,3.15,1.29,4.32,1.46a1.9,1.9,0,0,1,.6.15c0,.07-4.14,1.25-5.14,1.47a3.91,3.91,0,0,1-2.28-.09c-1-.2-1.44-.24-1.48-.14s-.09.14,1.08.38c.64.14.85.21.75.29s-.1.16,0,.33.12.25.07.28c-.21.11-1.82-.43-4.11-1.38-1.35-.56-3.84-1.47-5.55-2-3.07-1-3.24-1.11-2.19-1.14.54,0,2.65.69,6.05,2a23.46,23.46,0,0,0,2.63.93c.24-.12.09-.28-.45-.49-2-.77-6.76-2.51-7-2.56l-.32-.07.24-.05c.83-.16,3.69.67,8.33,2.42a11.66,11.66,0,0,0,2,.66c.11-.18-6.15-2.42-8.5-3l-.79-.21.72-.1c.69-.1.78-.09,2.52.51a7.36,7.36,0,0,0,1.74.49,7.18,7.18,0,0,0-1.5-.6,9.25,9.25,0,0,1-1.42-.54,9.81,9.81,0,0,1,1.17-.21l1.15-.15,3.35,1.1c4,1.34,4.77,1.54,6.23,1.74,1.63.22,1.53,0-.11-.3a39.42,39.42,0,0,1-4.94-1.37c-2-.64-3.6-1.18-3.59-1.21a16.5,16.5,0,0,1,3-.28c.07.14,7.08,2.63,7.14,2.54A21.22,21.22,0,0,0,39.2,10.4,41.2,41.2,0,0,1,35,8.82s.29-.05.59-.08A2.25,2.25,0,0,1,37,9c1.3.57,4.09,1.63,4.18,1.59s0-.16-1.09-.57a33,33,0,0,1-3.41-1.42,1.44,1.44,0,0,1,.48-.1,2.52,2.52,0,0,1,1.3.32c.77.34,1.05.4,1,.23a3.21,3.21,0,0,0-.66-.32,1.72,1.72,0,0,1-.6-.32,4.92,4.92,0,0,1,2.39.2c3.71.94,6.55,1.7,6.49,1.75a5,5,0,0,1-1,.27ZM38.54,1.52c-.38.15-2,.75-3.67,1.35a31.86,31.86,0,0,0-4.77,2,36.57,36.57,0,0,0-5,3L24,8.7l-.72.11-.71.11L23.67,8a21.63,21.63,0,0,1,5-3.32,18.35,18.35,0,0,0,2.45-1.42,54,54,0,0,0-5.68,3c-.3.22-1.17.9-1.93,1.53L22.16,9l-1.1.14L20,9.24l1-.78c1-.78,1.07-.89.94-.93A13.93,13.93,0,0,0,19.8,9.16c-.07.1-.28.18-.64.23-.51.07-.52.07-.3-.1s.69-.47,1.25-.82c1.19-.75,1.42-.92,1.27-1a15,15,0,0,0-1.75,1C18,9.55,18,9.58,17.39,9.69c-.74.13-.7.09.91-1,1.82-1.22,1.84-1.23,1.8-1.31S20,7.33,20,7.34c-.24.12-2.48,1.63-3,2a2.14,2.14,0,0,1-1.35.62c-.84.13-.91.12-.69-.07s.22-.14.27-.11a2.81,2.81,0,0,0,.84-.55,38,38,0,0,1,4-2.63c1-.55,1.31-.82,1.15-.87s-2.89,1.68-4,2.45a8.37,8.37,0,0,1-1,.64,21.73,21.73,0,0,1,2.32-2c1.22-1,2.94-1.94,7.34-4.19L29.94.55l1-.09C32,.36,32.17.37,32,.56a.27.27,0,0,0,0,.29c.06.12.27.16.79.13A34.83,34.83,0,0,1,37.63,1c.86.08,1.57.16,1.58.18a5.4,5.4,0,0,1-.67.31Zm-18.67,4c-1.65,1-5.2,4.06-5.29,4.49,0,.17-.09.2-.65.3a2.82,2.82,0,0,1-.7.09C13,10.3,15.15,8.2,16.57,7.12a25.06,25.06,0,0,1,2.15-1.43A4.4,4.4,0,0,0,19.82,5a14,14,0,0,0-3,1.71A26,26,0,0,0,13,10.15a.79.79,0,0,1-.61.39l-.37.07.9-.79c.84-.74,1.15-1.08.82-.91-.07,0-.56.43-1.08.87-1,.82-1.33,1.07-1.39.94a8.55,8.55,0,0,1,1.13-1.08,11.72,11.72,0,0,0,1.22-1.13c.08-.23-.76.41-1.85,1.41a6.05,6.05,0,0,1-1.29,1c-.21,0-.21,0-.07-.12s.77-.7,1.53-1.36a10.27,10.27,0,0,0,1.34-1.29c-.05-.11-.4.17-2.05,1.65a12.91,12.91,0,0,1-1.63,1.32c-.26.06,1.35-1.54,2.92-2.89,1.16-1,1.6-1.45,1.21-1.25A48.61,48.61,0,0,0,10,10.33a11.17,11.17,0,0,1-1,.94c-.26-.09,2.69-3.76,4.35-5.41a25.42,25.42,0,0,1,3.73-2.71,18,18,0,0,1,3.2-1.45s0,.16-.08.33a.88.88,0,0,0-.09.41c.07.13.25.07,1.56-.46A36.6,36.6,0,0,1,25.64.72l.29-.06-.17.23c-.2.25-.17.42.08.47a12.93,12.93,0,0,0,1.43-.27L28.57.8l-3.84,2c-2.12,1.11-4.3,2.31-4.86,2.67Zm13.62,9.77a10.3,10.3,0,0,0-1.82.34c-.08.08,0,.19.1.39s.18.28.05.3a.89.89,0,0,0-.26.07,13.9,13.9,0,0,1-3.18-.26A58.43,58.43,0,0,1,21,13.62c-1.36-.53-1.66-.61-1.56-.43a72.63,72.63,0,0,0,8.72,3.15,5.61,5.61,0,0,1,.89.19,6.27,6.27,0,0,1-2.2-.25,42.68,42.68,0,0,1-7-2.35c-3-1.24-4.42-1.78-4.93-1.92l-.33-.08.33-.1c.48-.13.68-.09,1.91.36a7.36,7.36,0,0,0,1.17.38c.15-.08-.09-.26-.5-.39s-.7-.24-1-.37l-.54-.23.32-.06c.5-.09,3,.76,6,2.09.28.12.51.16.51.1a32.25,32.25,0,0,0-4.59-2c-.95-.31-1.17-.46-.64-.45a18,18,0,0,1,2,.71,8.87,8.87,0,0,0,1.84.61c0-.05-.11-.16-.32-.24-.44-.16-2.39-.93-2.77-1.09L18,11.19l.55-.1c.51-.1.6-.08,1.54.35a11.67,11.67,0,0,0,2.9,1,2.52,2.52,0,0,0-.87-.42A18.37,18.37,0,0,1,19.56,11s.1-.07.25-.09a3.19,3.19,0,0,1,1,.3,12.6,12.6,0,0,0,2.73,1A8.62,8.62,0,0,0,22,11.44a16,16,0,0,1-1.54-.66l.38-.09a1.64,1.64,0,0,1,1,.23c.35.17.66.26.69.21s-.16-.19-.44-.31-.46-.24-.41-.26c.43-.22,5.63,1.39,9.8,3,1.53.6,3,1.16,3.24,1.23l.47.16s-.76.13-1.71.26Zm-5.57,2a7.19,7.19,0,0,1-1.65,0c-.66,0-.91.06-.79.31a.13.13,0,0,1,0,.18,8.4,8.4,0,0,1-2.5-.13,6.86,6.86,0,0,0-1.64-.12c-.31.15-1.81-.45-4.1-1.66-3.57-1.87-4.73-2.37-6.13-2.63a6.87,6.87,0,0,1-.88-.2c-.11-.21,2.47.43,3.85.95,1,.37,1.39.45,1,.21A31.54,31.54,0,0,0,11.59,13l-.68-.17.33-.09a11.84,11.84,0,0,1,3.62.83,3.73,3.73,0,0,0,1.09.25c.15-.07-.9-.44-2.64-.92-1.11-.31-1.2-.36-.93-.43a3.16,3.16,0,0,1,1.29.18,3,3,0,0,0,1,.17s-.33-.19-.78-.31l-.8-.22.35-.09c.68-.17,1.4.06,5.7,1.84,1.55.64,3.26,1.32,3.8,1.51a37.29,37.29,0,0,0,4.46,1.18c.5.08.58.12.55.29s0,.21,0,.22ZM14.21,4.35A10.14,10.14,0,0,1,12.86,6c-.52.54-1.38,1.49-1.92,2.12A22.42,22.42,0,0,1,8.2,10.94a3.79,3.79,0,0,1-1.61,1c-.22.06-.2,0,.2-.69a23.57,23.57,0,0,1,6.6-7c1.55-1.09,1.45-1,1.33-.78s-.28.51-.51.89ZM21,17.92a15.21,15.21,0,0,1-2.54-.59c-.71-.22-1.1-.28-1.24-.21a3.15,3.15,0,0,1-1.82-.42,5.34,5.34,0,0,0-1.29-.65c-1.14-.47-1.68-.68-4.39-1.75C8.92,14,8.87,14,9.28,14a21.25,21.25,0,0,1,4.6,1.5,14.92,14.92,0,0,0,2.3.85A35.12,35.12,0,0,0,11,14.21a17.89,17.89,0,0,0-2.16-.48c-.53-.08-.88-.16-.78-.18s.36-.1.56-.16a8.94,8.94,0,0,1,4.5.82c.56.24,2.12,1,3.46,1.72a21.48,21.48,0,0,0,3.54,1.62l1.13.37s-.11,0-.28,0ZM8.75,11a1.1,1.1,0,0,1-.9.64c-.15,0-.06-.1.36-.45l.64-.56c.16-.15.13,0-.1.37Zm-.48,1.38c0,.06,0,.12-.16.15-.38.09-4.39,1.43-5.92,2C1.37,14.77.68,15,.65,15s.51-.45,1.83-1.06a29.93,29.93,0,0,1,5-1.79c1-.27,1.06-.27.86-.07a.34.34,0,0,0-.11.27Z"/><path class="cls-2" d="M47,5.55a3.61,3.61,0,0,0-.71.31c-.1.15.25.08.85-.15.83-.32.7-.46-.14-.16Z"/><path class="cls-2" d="M46.61,5.14a16,16,0,0,0-2.5.8c0,.14.08.12,1.23-.24s1.54-.54,1.27-.56Z"/><path class="cls-2" d="M43.8,4a7.83,7.83,0,0,0-1.06.48c-.12.17.31.06,1.2-.32,1.27-.55,1.16-.69-.14-.16Z"/><path class="cls-2" d="M37.34,3.79l-1.57.62c-.18.06-.23.11-.17.17a11,11,0,0,0,3.09-1.25,5.25,5.25,0,0,0-1.35.46Z"/><path class="cls-2" d="M38,3.91a7.28,7.28,0,0,0-1.95,1s.33-.07.74-.27A11.71,11.71,0,0,1,38,4.15c.55-.2.59-.41,0-.24Z"/><path class="cls-2" d="M33.53,6.39a6.29,6.29,0,0,0-1.26.83c0,.11.18,0,.78-.34s1.05-.6,1.32-.74.47-.28.43-.34-.37.08-1.27.59Z"/><path class="cls-2" d="M32.85,6.21a7.93,7.93,0,0,0-1.48.94c0,.1.28,0,1-.48.6-.34,1.28-.72,1.53-.84s.42-.27.39-.33-.43.12-1.48.71Z"/><path class="cls-2" d="M42.38,10.46c-.39-.14-.73-.23-.75-.18a4.43,4.43,0,0,0,1.45.62c.23,0,0-.19-.7-.44Z"/><path class="cls-2" d="M35.34,9.71c-1.5-.62-1.8-.71-1.7-.53S36.91,10.63,37,10.6s-.28-.32-1.64-.89Z"/><path class="cls-2" d="M36.59,1.32c-.2,0-2.24.66-2.42.75s-.13.11-.11.15a13.25,13.25,0,0,0,2.64-.84s0-.07-.11-.06Z"/><path class="cls-2" d="M25.81,4.12A29.71,29.71,0,0,0,23.16,6c-.06.19.2,0,1.17-.63L25.88,4.3c.28-.18.51-.38.51-.44s-.17,0-.58.26Z"/><path class="cls-2" d="M26.08,4.68a19,19,0,0,0-2.39,1.65c-.06.17,0,.13,1.47-.82a8.09,8.09,0,0,0,1.23-.9s-.15,0-.31.07Z"/><path class="cls-2" d="M23.88,6.53a15.93,15.93,0,0,0-2.19,1.69c.06.1.25,0,1.26-.79s1.08-.85.93-.9Z"/><path class="cls-2" d="M20.34,7.6A21.6,21.6,0,0,0,18.1,9.12c-.09.08-.13.16-.09.19a5.25,5.25,0,0,0,1-.62,16.68,16.68,0,0,1,1.42-.91c.27-.14.46-.29.44-.34s-.27,0-.53.16Z"/><path class="cls-2" d="M17,5.24c-1.4.73-1.83,1-1.86,1.13s0,.12.51-.18,1.17-.66,1.91-1c.93-.47,1.32-.71,1.29-.78A7,7,0,0,0,17,5.24Z"/><path class="cls-2" d="M17.49,5.52A15.71,15.71,0,0,0,14.9,7.18c0,.1.13,0,.53-.22s1-.62,1.59-.94c1-.59,1.35-.95.47-.5Z"/><path class="cls-2" d="M25.34,13.52c-1.3-.52-1.58-.61-1.5-.45a20.46,20.46,0,0,0,2.85,1.15c.15-.07,0-.17-1.35-.7Z"/><path class="cls-2" d="M24.42,14a1.7,1.7,0,0,0-.73-.16c0,.05.28.22.71.37s.77.23.73.16a2.09,2.09,0,0,0-.71-.37Z"/><path class="cls-2" d="M17.79,14.89a7.19,7.19,0,0,1-.7-.38.16.16,0,0,0-.21,0,4.21,4.21,0,0,0,1.49.84c.13-.07,0-.15-.58-.46Z"/><path class="cls-2" d="M16.76,14.94c-.41-.2-.66-.25-.6-.13a2.1,2.1,0,0,0,1,.46c.07-.11.1-.09-.39-.33Z"/><path class="cls-2" d="M10.46,8.13a29.33,29.33,0,0,0-2.34,2.13C6.92,11.4,6.91,11.42,7,11.48a5.21,5.21,0,0,0,1-.89c.52-.51,1.32-1.26,1.78-1.67a4.5,4.5,0,0,0,.79-.79s-.09,0-.16,0Z"/></g></svg>